<svg class="main-svg" xmlns="http://www.w3.org/2000/svg" width="700" height="500"><path style="fill:#fff;fill-opacity:1" d="M0 0h700v500H0z"/><defs><clipPath id="a" class="plotclip"><path d="M0 0h540v360H0z"/></clipPath></defs><g class="bglayer"><path class="bg" style="fill:#e5ecf6;fill-opacity:1;stroke-width:0" d="M80 60h540v360H80z"/></g><g class="cartesianlayer"><g class="subplot xy"><g class="gridlayer"><g class="x"><path class="xgrid crisp" transform="translate(137.9)" d="M0 60v360" style="stroke:#fff;stroke-opacity:1;stroke-width:1px"/><path class="xgrid crisp" transform="translate(208.92)" d="M0 60v360" style="stroke:#fff;stroke-opacity:1;stroke-width:1px"/><path class="xgrid crisp" transform="translate(278.78)" d="M0 60v360" style="stroke:#fff;stroke-opacity:1;stroke-width:1px"/><path class="xgrid crisp" transform="translate(349.81)" d="M0 60v360" style="stroke:#fff;stroke-opacity:1;stroke-width:1px"/><path class="xgrid crisp" transform="translate(420.06)" d="M0 60v360" style="stroke:#fff;stroke-opacity:1;stroke-width:1px"/><path class="xgrid crisp" transform="translate(491.08)" d="M0 60v360" style="stroke:#fff;stroke-opacity:1;stroke-width:1px"/><path class="xgrid crisp" transform="translate(560.94)" d="M0 60v360" style="stroke:#fff;stroke-opacity:1;stroke-width:1px"/></g><g class="y"><path class="ygrid crisp" transform="translate(0 354.83)" d="M80 0h540" style="stroke:#fff;stroke-opacity:1;stroke-width:1px"/><path class="ygrid crisp" transform="translate(0 307.86)" d="M80 0h540" style="stroke:#fff;stroke-opacity:1;stroke-width:1px"/><path class="ygrid crisp" transform="translate(0 260.9)" d="M80 0h540" style="stroke:#fff;stroke-opacity:1;stroke-width:1px"/><path class="ygrid crisp" transform="translate(0 213.93)" d="M80 0h540" style="stroke:#fff;stroke-opacity:1;stroke-width:1px"/><path class="ygrid crisp" transform="translate(0 166.96)" d="M80 0h540" style="stroke:#fff;stroke-opacity:1;stroke-width:1px"/><path class="ygrid crisp" transform="translate(0 120)" d="M80 0h540" style="stroke:#fff;stroke-opacity:1;stroke-width:1px"/><path class="ygrid crisp" transform="translate(0 73.03)" d="M80 0h540" style="stroke:#fff;stroke-opacity:1;stroke-width:1px"/></g></g><g class="zerolinelayer"><path class="yzl zl crisp" transform="translate(0 401.8)" d="M80 0h540" style="stroke:#fff;stroke-opacity:1;stroke-width:2px"/></g><g class="plot" transform="translate(80 60)" clip-path="url(#a)"><g class="scatterlayer mlayer"><g class="trace scatter tracecf5981" style="stroke-miterlimit:2;opacity:1"><g class="lines"><path class="js-line" d="m0 274.05 22.77.25 11.58 13.18 11.97 52.51 11.58.26 11.96.27 11.97-7.1 11.58 7.29 11.97-.1 58.28.5 11.58-7.09 11.97 7.26 11.57-6.99 11.97 7.25 11.97-7.04 11.58-60.36 11.96.31 11.58-6.95 11.97 72.72 35.12.68 11.58-6.63 11.97 7.39 11.58-70.7 11.96 70.66 11.97-6.6 11.58-58.14 11.96-6.31 11.58-13.33 11.97-6.39 22.77-12.86 11.97-13.55 11.58.53 11.96-6.31 11.58-13.18 11.97-6.38 11.96-13.31 11.58.52 11.97-6.31L540 166.77" style="vector-effect:none;fill:none;stroke:#636efa;stroke-opacity:1;stroke-width:2px;opacity:1"/></g></g><g class="trace scatter trace2606da" style="stroke-miterlimit:2;opacity:1"><g class="lines"><path class="js-line" d="m0 273.88 57.9.61 11.96 21.69 11.97 45.2 11.58.25 11.97.25 11.57-2.1 11.97-9.54 11.97 9.63 10.8-9.55 11.97 9.62 11.58-9.53 11.97 9.6 11.57-9.47 11.97 9.58 11.97.19L234.3 278l11.96 63.69 11.58.09 11.97-2 11.96-9.27 11.2 9.71 11.96.33 23.55.12 11.58-7.01 11.96-63.05 11.97 1.87 11.58-16.35 11.96.4 11.58-6.91 11.97 2.8L423.05 342l10.8-76.02 11.97.55 11.58-6.76 11.96-5.16 11.58 78.23 11.97-68.57 11.96.71 11.58-8.3 11.97-15.86 11.58.69" style="vector-effect:none;fill:none;stroke:#ef553b;stroke-opacity:1;stroke-width:2px;opacity:1"/></g></g><g class="trace scatter trace500c2f" style="stroke-miterlimit:2;opacity:1"><g class="lines"><path class="js-line" d="m0 274.67 352.02 3.7 11.97.92 11.58 1.57 11.96.13 117.34 1.23 11.58 4.37 11.97 53.96 11.58.27" style="vector-effect:none;fill:none;stroke:#00cc96;stroke-opacity:1;stroke-width:2px;opacity:1"/></g></g><g class="trace scatter trace2aa6c3" style="stroke-miterlimit:2;opacity:1"><g class="lines"><path class="js-line" d="m0 274.61 10.81.12 11.96 10.64 11.58 55.08 11.97.22 47.09.29 11.97-.38 35.51-.01 10.8-7.44 11.97 7.22 11.58-7.34 11.97 7.2 11.57-7.42 11.97-58.21 11.97-7.32 11.58.26 11.96-7.32 23.55.51 11.96-7.18 11.2.25 11.96-7.16 23.55.51 11.58-7.14 11.96.26 11.97-7.23 23.54.73 11.58 89.05 11.97 17.39 11.97.46 22.77.54 11.58-6.99 11.96-60.54 11.58-3.03 11.97 8.49 11.96 52.64 11.58 8.64 11.97.59 11.58.28" style="vector-effect:none;fill:none;stroke:#ab63fa;stroke-opacity:1;stroke-width:2px;opacity:1"/></g></g><g class="trace scatter traced01286" style="stroke-miterlimit:2;opacity:1"><g class="lines"><path class="js-line" d="m0 281.4 10.81 59.55 11.96.28 35.13.1 11.96.27 11.97-7.5 11.58 7.3 11.97-.49 11.57-7.56 11.97 7.29 11.97-.45 34.35-.04 11.97-7.44 11.57-53.51 11.97-7.41 11.97-7.4 11.58.31 11.96-7.42 11.58.3 11.97-7.47 11.96.31 11.2-7.4 11.96.3 11.58-7.38 11.97.31 23.54-14.73 11.97.3 11.58-7.38 11.96.3 11.58 12.83 11.97 45.99 11.97-5.63 10.8.49 11.97-7.16 11.58-11.08 11.96-7.14 11.58-11.09 11.97 11.32 11.96 87.2 11.58 9.49 11.97-10.86L540 340.95" style="vector-effect:none;fill:none;stroke:#ffa15a;stroke-opacity:1;stroke-width:2px;opacity:1"/></g></g><g class="trace scatter traceec3748" style="stroke-miterlimit:2;opacity:1"><g class="lines"><path class="js-line" d="m0 274.02 269.81 2.83 11.96 36.26 11.2 27.34 11.96.21 47.09.95 11.97-12.13 11.58 10.09 11.96-12.27 11.58 12.48 11.97 2.01 11.97-1.98 10.8 1.95 11.97-2 11.58 2.09 11.96-14.29 11.58 14.38 11.97-70.73 11.96 3.26 11.58-11.74 11.97.39 11.58-11.9" style="vector-effect:none;fill:none;stroke:#19d3f3;stroke-opacity:1;stroke-width:2px;opacity:1"/></g></g><g class="trace scatter tracebfe326" style="stroke-miterlimit:2;opacity:1"><g class="lines"><path class="js-line" d="m0 276.15 34.35.37 11.97 13.46 11.58 50.19 11.96.35 23.55.68 11.97-9.48 11.57 9.72 11.97-.19 34.74.37 11.58-.22 23.54.03 11.97-9.6 11.97 9.64 11.58-9.49 11.96-58.69 11.58 68.69 11.97-2.15 11.96.56 11.2.03 11.96-10.57 11.58-60.71 11.97 71.18 11.58-10.55 11.96 10.14 11.97-78.35 11.58-18.16 11.96-19.83 11.58-8.32 11.97-29.04 11.97-18.45 10.8-9.88 11.97-18.46 11.58-19.7 11.96-8.37 11.58-19.5 11.97-18.06 11.96-18.76 11.58-9.05 11.97-18.94L540 18" style="vector-effect:none;fill:none;stroke:#ff6692;stroke-opacity:1;stroke-width:2px;opacity:1"/></g></g><g class="trace scatter tracec17f41" style="stroke-miterlimit:2;opacity:1"><g class="lines"><path class="js-line" d="m0 274.09 10.81 11.53 11.96 55.58 35.13.8 11.96-1.16 11.97.26 11.58-1.18 11.97.25 11.57 1.14 11.97-8.25 11.97 7.27 10.8-8.21 11.97 9.6 11.58-67.49 11.97 1.96 11.57-3.48 11.97 67.84 11.97-.81 11.58.44 11.96 1.44 11.58-17.44 11.97 16.84 11.96-8.06 11.2 6.68 11.96-7.04 11.58 7.48 11.97-68.81 11.58-3.39 11.96 64.11 11.97 7.96 11.58-76.67 11.96-14.13 11.58-17.92 11.97-16.29 11.97-17.86 10.8-16.46 11.97-26.9 11.58-7.07 11.96-26.95 11.58-16.49 11.97-25.66 11.96 6.9 11.58 60.93 11.97 1.49 11.58-31.3" style="vector-effect:none;fill:none;stroke:#b6e880;stroke-opacity:1;stroke-width:2px;opacity:1"/></g></g><g class="trace scatter trace620856" style="stroke-miterlimit:2;opacity:1"><g class="lines"><path class="js-line" d="m0 273.91 198.78 2.1 11.97 18.3 11.97 47.55 11.58-2.01 47.47.98 11.2-.47 11.96.37 11.58-.46 11.97-12.14 11.58 12.05 11.96-12.19 11.97 12.05 11.58-66.53 11.96 68.34 11.58-.12 11.97-1.84 22.77.42 11.97-79.5 11.58 3.14 11.96-23.23 11.58.56 11.97-11.73 11.96-10.01 11.58 26.32 11.97 94.86L540 271.8" style="vector-effect:none;fill:none;stroke:#ff97ff;stroke-opacity:1;stroke-width:2px;opacity:1"/></g></g><g class="trace scatter trace92d63a" style="stroke-miterlimit:2;opacity:1"><g class="lines"><path class="js-line" d="m0 274.03 46.32 1.17 11.58 65.45 35.51.61 11.97-7.71 11.57 7.24 11.97-.71 11.97.19 10.8 1.61 11.97-2.18 11.58 1.7 11.97.16 11.57-69.01 11.97 11.04 11.97 58.11 11.58-9.9 11.96 9.72 11.58.31 11.97-.45 11.96-.95 11.2-60.66 11.96 59.55 11.58 1.31 11.97-7.38 11.58 6.39 11.96 1.97 11.97-71.38 11.58-6.52 11.96-13.75 11.58-5.87 11.97-15.3 11.97.54 10.8-13.69 11.97-7.6 11.58-13.62 11.96-7.58 11.58-13.68 11.97-7.39 11.96-13.95 11.58-7.28 11.97-5.76L540 123.22" style="vector-effect:none;fill:none;stroke:#fecb52;stroke-opacity:1;stroke-width:2px;opacity:1"/></g></g></g></g><g class="xaxislayer-above" text-anchor="middle"><text y="433" transform="translate(137.9)" style="font-family:'Open Sans',verdana,arial,sans-serif;font-size:12px;fill:#2a3f5f;fill-opacity:1;white-space:pre;opacity:1" class="xtick">Jul 1950</text><text y="433" style="font-family:'Open Sans',verdana,arial,sans-serif;font-size:12px;fill:#2a3f5f;fill-opacity:1;white-space:pre;opacity:1" transform="translate(208.92)" class="xtick">Jan 1951</text><text y="433" style="font-family:'Open Sans',verdana,arial,sans-serif;font-size:12px;fill:#2a3f5f;fill-opacity:1;white-space:pre;opacity:1" transform="translate(278.78)" class="xtick">Jul 1951</text><text y="433" style="font-family:'Open Sans',verdana,arial,sans-serif;font-size:12px;fill:#2a3f5f;fill-opacity:1;white-space:pre;opacity:1" transform="translate(349.81)" class="xtick">Jan 1952</text><text y="433" style="font-family:'Open Sans',verdana,arial,sans-serif;font-size:12px;fill:#2a3f5f;fill-opacity:1;white-space:pre;opacity:1" transform="translate(420.06)" class="xtick">Jul 1952</text><text y="433" style="font-family:'Open Sans',verdana,arial,sans-serif;font-size:12px;fill:#2a3f5f;fill-opacity:1;white-space:pre;opacity:1" transform="translate(491.08)" class="xtick">Jan 1953</text><text y="433" style="font-family:'Open Sans',verdana,arial,sans-serif;font-size:12px;fill:#2a3f5f;fill-opacity:1;white-space:pre;opacity:1" transform="translate(560.94)" class="xtick">Jul 1953</text></g><g class="yaxislayer-above" text-anchor="end"><text x="79" y="4.2" transform="translate(0 401.8)" style="font-family:'Open Sans',verdana,arial,sans-serif;font-size:12px;fill:#2a3f5f;fill-opacity:1;white-space:pre;opacity:1" class="ytick">0</text><text x="79" y="4.2" style="font-family:'Open Sans',verdana,arial,sans-serif;font-size:12px;fill:#2a3f5f;fill-opacity:1;white-space:pre;opacity:1" transform="translate(0 354.83)" class="ytick">0.2M</text><text x="79" y="4.2" style="font-family:'Open Sans',verdana,arial,sans-serif;font-size:12px;fill:#2a3f5f;fill-opacity:1;white-space:pre;opacity:1" transform="translate(0 307.86)" class="ytick">0.4M</text><text x="79" y="4.2" style="font-family:'Open Sans',verdana,arial,sans-serif;font-size:12px;fill:#2a3f5f;fill-opacity:1;white-space:pre;opacity:1" transform="translate(0 260.9)" class="ytick">0.6M</text><text x="79" y="4.2" style="font-family:'Open Sans',verdana,arial,sans-serif;font-size:12px;fill:#2a3f5f;fill-opacity:1;white-space:pre;opacity:1" transform="translate(0 213.93)" class="ytick">0.8M</text><text x="79" y="4.2" style="font-family:'Open Sans',verdana,arial,sans-serif;font-size:12px;fill:#2a3f5f;fill-opacity:1;white-space:pre;opacity:1" transform="translate(0 166.96)" class="ytick">1M</text><text x="79" y="4.2" style="font-family:'Open Sans',verdana,arial,sans-serif;font-size:12px;fill:#2a3f5f;fill-opacity:1;white-space:pre;opacity:1" transform="translate(0 120)" class="ytick">1.2M</text><text x="79" y="4.2" style="font-family:'Open Sans',verdana,arial,sans-serif;font-size:12px;fill:#2a3f5f;fill-opacity:1;white-space:pre;opacity:1" transform="translate(0 73.03)" class="ytick">1.4M</text></g></g></g><defs><clipPath id="b"><path d="M0 0h53v219H0z"/></clipPath></defs><g class="infolayer"><g class="legend" pointer-events="all"><path class="bg" shape-rendering="crispEdges" style="stroke:#444;stroke-opacity:1;fill:#fff;fill-opacity:1;stroke-width:0" d="M0 0h53v219H0z" transform="translate(630.8 60)"/><g class="scrollbox" clip-path="url(#b)" transform="translate(630.8 60)"><text class="legendtitletext" x="2" y="18.2" style="font-family:'Open Sans',verdana,arial,sans-serif;font-size:14px;fill:#2a3f5f;fill-opacity:1;white-space:pre">seed</text><g class="groups"><g class="traces" style="opacity:1"><text class="legendtext" x="40" y="4.68" style="font-family:'Open Sans',verdana,arial,sans-serif;font-size:12px;fill:#2a3f5f;fill-opacity:1;white-space:pre" transform="translate(0 32.7)">0</text><g class="layers" style="opacity:1"><g class="legendlines"><path class="js-line" d="M5 0h30" style="fill:none;stroke:#636efa;stroke-opacity:1;stroke-width:2px" transform="translate(0 32.7)"/></g></g><path class="legendtoggle" style="fill:#000;fill-opacity:0" fill="none" d="M0-9.5h47.64v19H0z" transform="translate(0 32.7)"/></g></g><g class="groups"><g class="traces" style="opacity:1"><text class="legendtext" x="40" y="4.68" style="font-family:'Open Sans',verdana,arial,sans-serif;font-size:12px;fill:#2a3f5f;fill-opacity:1;white-space:pre" transform="translate(0 51.7)">1</text><g class="layers" style="opacity:1"><g class="legendlines"><path class="js-line" d="M5 0h30" style="fill:none;stroke:#ef553b;stroke-opacity:1;stroke-width:2px" transform="translate(0 51.7)"/></g></g><path class="legendtoggle" style="fill:#000;fill-opacity:0" fill="none" d="M0-9.5h47.64v19H0z" transform="translate(0 51.7)"/></g></g><g class="groups"><g class="traces" style="opacity:1"><text class="legendtext" x="40" y="4.68" style="font-family:'Open Sans',verdana,arial,sans-serif;font-size:12px;fill:#2a3f5f;fill-opacity:1;white-space:pre" transform="translate(0 70.7)">2</text><g class="layers" style="opacity:1"><g class="legendlines"><path class="js-line" d="M5 0h30" style="fill:none;stroke:#00cc96;stroke-opacity:1;stroke-width:2px" transform="translate(0 70.7)"/></g></g><path class="legendtoggle" style="fill:#000;fill-opacity:0" fill="none" d="M0-9.5h47.64v19H0z" transform="translate(0 70.7)"/></g></g><g class="groups"><g class="traces" style="opacity:1"><text class="legendtext" x="40" y="4.68" style="font-family:'Open Sans',verdana,arial,sans-serif;font-size:12px;fill:#2a3f5f;fill-opacity:1;white-space:pre" transform="translate(0 89.7)">3</text><g class="layers" style="opacity:1"><g class="legendlines"><path class="js-line" d="M5 0h30" style="fill:none;stroke:#ab63fa;stroke-opacity:1;stroke-width:2px" transform="translate(0 89.7)"/></g></g><path class="legendtoggle" style="fill:#000;fill-opacity:0" fill="none" d="M0-9.5h47.64v19H0z" transform="translate(0 89.7)"/></g></g><g class="groups"><g class="traces" style="opacity:1"><text class="legendtext" x="40" y="4.68" style="font-family:'Open Sans',verdana,arial,sans-serif;font-size:12px;fill:#2a3f5f;fill-opacity:1;white-space:pre" transform="translate(0 108.7)">4</text><g class="layers" style="opacity:1"><g class="legendlines"><path class="js-line" d="M5 0h30" style="fill:none;stroke:#ffa15a;stroke-opacity:1;stroke-width:2px" transform="translate(0 108.7)"/></g></g><path class="legendtoggle" style="fill:#000;fill-opacity:0" fill="none" d="M0-9.5h47.64v19H0z" transform="translate(0 108.7)"/></g></g><g class="groups"><g class="traces" style="opacity:1"><text class="legendtext" x="40" y="4.68" style="font-family:'Open Sans',verdana,arial,sans-serif;font-size:12px;fill:#2a3f5f;fill-opacity:1;white-space:pre" transform="translate(0 127.7)">5</text><g class="layers" style="opacity:1"><g class="legendlines"><path class="js-line" d="M5 0h30" style="fill:none;stroke:#19d3f3;stroke-opacity:1;stroke-width:2px" transform="translate(0 127.7)"/></g></g><path class="legendtoggle" style="fill:#000;fill-opacity:0" fill="none" d="M0-9.5h47.64v19H0z" transform="translate(0 127.7)"/></g></g><g class="groups"><g class="traces" style="opacity:1"><text class="legendtext" x="40" y="4.68" style="font-family:'Open Sans',verdana,arial,sans-serif;font-size:12px;fill:#2a3f5f;fill-opacity:1;white-space:pre" transform="translate(0 146.7)">6</text><g class="layers" style="opacity:1"><g class="legendlines"><path class="js-line" d="M5 0h30" style="fill:none;stroke:#ff6692;stroke-opacity:1;stroke-width:2px" transform="translate(0 146.7)"/></g></g><path class="legendtoggle" style="fill:#000;fill-opacity:0" fill="none" d="M0-9.5h47.64v19H0z" transform="translate(0 146.7)"/></g></g><g class="groups"><g class="traces" style="opacity:1"><text class="legendtext" x="40" y="4.68" style="font-family:'Open Sans',verdana,arial,sans-serif;font-size:12px;fill:#2a3f5f;fill-opacity:1;white-space:pre" transform="translate(0 165.7)">7</text><g class="layers" style="opacity:1"><g class="legendlines"><path class="js-line" d="M5 0h30" style="fill:none;stroke:#b6e880;stroke-opacity:1;stroke-width:2px" transform="translate(0 165.7)"/></g></g><path class="legendtoggle" style="fill:#000;fill-opacity:0" fill="none" d="M0-9.5h47.64v19H0z" transform="translate(0 165.7)"/></g></g><g class="groups"><g class="traces" style="opacity:1"><text class="legendtext" x="40" y="4.68" style="font-family:'Open Sans',verdana,arial,sans-serif;font-size:12px;fill:#2a3f5f;fill-opacity:1;white-space:pre" transform="translate(0 184.7)">8</text><g class="layers" style="opacity:1"><g class="legendlines"><path class="js-line" d="M5 0h30" style="fill:none;stroke:#ff97ff;stroke-opacity:1;stroke-width:2px" transform="translate(0 184.7)"/></g></g><path class="legendtoggle" style="fill:#000;fill-opacity:0" fill="none" d="M0-9.5h47.64v19H0z" transform="translate(0 184.7)"/></g></g><g class="groups"><g class="traces" style="opacity:1"><text class="legendtext" x="40" y="4.68" style="font-family:'Open Sans',verdana,arial,sans-serif;font-size:12px;fill:#2a3f5f;fill-opacity:1;white-space:pre" transform="translate(0 203.7)">9</text><g class="layers" style="opacity:1"><g class="legendlines"><path class="js-line" d="M5 0h30" style="fill:none;stroke:#fecb52;stroke-opacity:1;stroke-width:2px" transform="translate(0 203.7)"/></g></g><path class="legendtoggle" style="fill:#000;fill-opacity:0" fill="none" d="M0-9.5h47.64v19H0z" transform="translate(0 203.7)"/></g></g></g></g><g class="g-xtitle"><text class="xtitle" x="350" y="459.8" text-anchor="middle" style="font-family:'Open Sans',verdana,arial,sans-serif;font-size:14px;fill:#2a3f5f;opacity:1;font-weight:400;white-space:pre">date</text></g><g class="g-ytitle"><text class="ytitle" transform="rotate(-90 24.95 240)" x="24.95" y="240" text-anchor="middle" style="font-family:'Open Sans',verdana,arial,sans-serif;font-size:14px;fill:#2a3f5f;opacity:1;font-weight:400;white-space:pre">value</text></g></g></svg>